Patient4_TMGait_0pt6_01_right_16_EMG.mot
version=1
nRows=30
nColumns=33
inDegrees=no
endheader
time	1LAddLong	2LGlutMax	3LGlutMed	4LIliopsoas	5LSemiMemb	6LBicFemLong	7LRecFem	8LVastMed	9LVastLat	10LGasMed	11LTibAnt	12lTibPost	13LPeroneusLong	14LSol	15LExtDigLong	16LFlexDigLong	17RAddLong	18RGlutMax	19RGlutMed	20RIliopsoas	21RSemiMemb	22RBicFemLong	23RRecFem	24RVastMed	25RVastLat	26RGasMed	27RTibAnt	28RTibPost	29RPeroneusLong	30RSol	31RExtDigLong	32RFlexDigLong
19.74	-0.038452	0.058746	-0.015564	0.0177	0.071716	-0.33173	-0.053558	0.010986	-0.001984	0.094604	-0.013428	-0.001984	0.027618	0.059967	-0.06485	0.003204	-0.022583	-0.13763	0.39597	-0.080719	0.019684	-0.23865	-0.33249	0.045929	0.00412	0.012817	-0.10971	-0.002136	-0.085297	-0.15854	-0.001831	-0.011444
19.741	-0.024872	0.077057	-0.014954	0.017548	0.039063	-0.17914	0.050812	0.002289	0.028839	0.087738	-0.060577	-0.00351	0.014648	0.065613	0.37369	0.010223	-0.015259	-0.077972	0.32501	-0.068207	0.067596	-0.11353	-0.32044	0.05661	0.004425	0.013123	-0.010376	-0.002289	-0.04364	-0.11597	-0.003815	-0.00824
19.742	0.003357	0.096893	-0.034027	0.011749	0.1152	-0.19806	0.15549	-0.009766	0.069427	0.003204	-0.13779	0.001678	0.081787	0.089264	0.14832	0.002136	-0.018921	-0.12253	0.007019	-0.03418	0.10712	-0.025024	-0.32471	0.067139	0.016022	0.016937	-0.061951	-0.00351	0.001984	-0.057373	0.002289	-0.013733
19.743	0.017548	0.16251	-0.031586	0.009155	0.10056	-0.15808	0.14114	-0.028839	0.15747	-0.20721	-0.17883	0.012512	0.1416	0.11169	0.10391	0.00351	0.007172	-0.15137	-0.121	-0.017548	0.12695	-0.049896	-0.31555	-0.006866	-0.014648	0.014191	-0.060425	-0.003967	0.13473	-0.073853	-0.003967	-0.016174
19.744	0.037689	0.20706	-0.013885	-0.007629	0.13992	-0.017548	0.080109	-0.021362	0.1593	-0.24277	-0.06424	0.007172	0.13321	0.12268	-0.10834	0.001221	0.036621	-0.16251	-0.063324	-0.056915	0.23972	-0.002136	-0.26047	-0.03479	-0.019836	0.019073	-0.099182	-0.000153	0.030975	-0.093384	0	-0.013733
19.745	0.027161	0.25238	-0.021057	0.000305	0.1062	0.15564	0.096893	-0.007324	0.16174	-0.14008	0.061493	0.006409	0.070343	0.12558	-0.16892	-0.003357	0.033875	-0.17593	-0.058289	-0.04425	0.27863	0.098267	-0.27023	-0.012665	-0.014343	0.030518	-0.15305	-0.004883	-0.09552	-0.10452	-0.003662	-0.009155
19.746	-0.004578	0.28305	-0.00473	0	0.060272	0.31509	0.15182	0.003204	0.15869	-0.077667	0.02655	0.004425	-0.017395	0.1236	0.082855	-0.007629	0.029907	-0.11932	-0.10986	0.027008	0.30914	0.000458	-0.31799	-0.037079	-0.00473	0.028534	-0.08194	-0.002899	-0.093079	-0.07782	-0.003967	-0.014954
19.747	-0.022736	0.28809	0.010071	0.025635	-0.002899	0.35797	0.09201	0.009155	0.11765	-0.06073	0.045929	0.006256	-0.006256	0.14374	-0.067444	-0.003662	0.035553	-0.20004	-0.055389	0.053101	0.27695	-0.13657	-0.31769	-0.06958	-0.016174	0.026093	0.082397	-0.00412	0.010223	-0.039368	-0.001221	-0.007324
19.748	-0.007172	0.24674	0.016937	0.028534	-0.06424	0.20325	0.070648	-0.001221	0.085602	-0.040588	0.21912	0.005646	0.10422	0.078278	-0.22034	-0.003967	0.013428	-0.18204	-0.036316	0.007782	0.081177	-0.074158	-0.24124	-0.05722	0.002747	-0.006256	0.11627	-0.006256	-0.053558	-0.005493	-0.00061	-0.006714
19.749	-0.003357	0.25726	0.024719	0.020905	-0.12238	-0.019684	0.068665	-0.001678	-0.045319	-0.033569	0.2214	0.005646	0.1886	0.013428	-0.23041	0.004425	-0.021515	-0.16663	-0.067291	0.021362	-0.066833	0.20721	-0.29877	-0.037537	0.005493	-0.016937	0.059052	-0.011444	-0.036926	0.002747	-0.00412	-0.00824
19.75	0.00885	0.25223	0.038147	0.019989	-0.097961	-0.005341	0.057068	-0.001831	-0.12314	-0.03067	0.18799	-0.000153	-0.028076	-0.008392	-0.15213	0.00824	-0.050354	-0.18982	-0.090179	-0.048981	-0.04303	0.40848	-0.30319	0.037994	0.037231	0.001373	0.026855	-0.007477	0.13809	0.16525	-0.001831	-0.010529
19.751	0.003662	0.20599	0.058441	0.005646	-0.04837	-0.01297	0.039825	-0.005951	-0.12253	-0.031281	0.15121	0.002594	0.2005	0.01297	-0.065613	0.007324	-0.045929	-0.24658	-0.009003	-0.027771	0.24628	0.28534	-0.29114	0.086365	0.015717	-0.013123	0.010681	-0.002899	0.28168	0.20035	-0.002289	-0.011292
19.752	0.00473	0.14404	0.063629	0.018463	0.083466	-0.04364	0.021515	-0.013885	0.040741	-0.044861	-0.067291	-0.000763	0.62302	-0.028687	-0.064392	0.005035	-0.037384	-0.25543	-0.028534	0.026855	0.24368	0.18799	-0.26718	0.077667	0.005798	-0.013733	0.015717	0.002899	0.24612	0.18219	-0.002594	-0.012054
19.753	-0.004578	0.15182	0.068359	0.005035	0.11475	-0.13687	0.033417	-0.001831	0.13504	-0.017548	-0.1445	0.003052	0.35095	-0.068359	-0.14236	0.005951	-0.011139	-0.22415	-0.044556	0.020752	0.1886	0.15243	-0.23865	0.049591	-0.015564	-0.016785	0.034943	-0.006866	0.26154	0.16052	-0.004578	-0.012207
19.754	-0.009003	0.14175	0.076294	0.016022	0.044098	-0.14877	0.015411	-0.014648	0.1561	0.001831	-0.048981	0.008392	-0.32196	-0.036163	-0.16205	0.004425	0.011139	-0.20203	-0.087738	-0.02243	0.20248	-0.014343	-0.18021	-0.006409	-0.015564	-0.026855	0.038605	-0.014954	0.005798	0.018463	-0.003204	-0.005493
19.755	-0.010223	0.11673	0.048828	0.00885	-0.072327	0.084534	-0.03006	0.01236	0.10574	0.019226	-0.056763	0.007172	-0.11734	-0.038452	-0.18372	0.007172	0.028076	-0.1738	-0.075073	-0.12528	0.16953	-0.11169	-0.16251	-0.020752	-0.016937	-0.045166	0.017242	-0.024109	-0.28122	-0.001678	-0.002441	-0.003662
19.756	-0.011292	0.12085	-0.014496	0.002594	-0.18524	0.27725	0.050812	-0.004578	0.000153	0.023346	-0.038452	0.007629	-0.061035	-0.04425	-0.053864	0.006409	0.036316	-0.15976	-0.12375	-0.21225	0.11841	-0.16205	-0.24826	0.022278	-0.003357	-0.013733	0.043945	-0.030212	-0.37766	-0.003662	-0.00351	-0.012512
19.757	-0.097351	0.075531	-0.053253	0.017395	-0.19134	0.3064	0.049438	0.013733	-0.045929	0.000916	-0.027008	0.002747	0.029907	-0.039673	0.11353	0.001526	0.0354	-0.19653	-0.098419	-0.17105	0.1178	-0.10559	-0.20477	0.017548	-0.036621	-0.006409	0.10239	-0.043335	0.26047	-0.01297	-0.005341	-0.014343
19.758	0.057526	0.13596	-0.062866	0.019989	-0.082855	0.25436	0.016785	0.00412	0.061035	0.002289	-0.010681	0.006409	0.055695	0.02655	0.21683	0.009003	0.012512	-0.24536	-0.063171	-0.006256	0.13046	-0.14816	-0.24536	0.020752	-0.027618	-0.008698	0.058899	-0.020447	0.53162	-0.06897	-0.000763	-0.003204
19.759	0.074463	0.20172	-0.007629	0.01236	0.00061	0.15243	0.016022	0.005493	0.21912	0.004883	0.01709	0.00946	-0.018463	0.033875	0.21072	0.001831	-0.005035	-0.21835	-0.020599	0.095978	0.14358	-0.23377	-0.22858	-0.027618	-0.04837	-0.011597	-0.012665	0.048523	0.91873	-0.168	0.002136	-0.010223
19.76	0.050659	0.26749	0.011749	0.018463	0.11658	0.009766	0.0354	0.008087	0.23377	0.006714	0.039673	0.000305	-0.051575	-0.006409	0.16205	0.007324	0.003967	-0.21042	0.024414	0.19913	0.1506	-0.25696	-0.25635	-0.05188	-0.047607	0	-0.05249	0.000153	0.42435	-0.14145	-0.002747	-0.010681
19.761	0.047455	0.21896	-0.017853	0.003662	0.23377	-0.070953	0.059814	-0.005188	0.159	0.000916	0.025482	0.008698	-0.00412	-0.011902	0.10956	0.016022	0.004578	-0.20798	0.081787	0.076904	0.11993	-0.21515	-0.24796	-0.084686	-0.056	-0.039978	0.036926	-0.005493	0.1413	-0.041199	-0.001068	-0.021515
19.762	0.031891	0.17792	-0.03952	0.006104	0.15289	-0.17014	0.096283	-0.019684	0.016174	0.016022	0.01358	0.009613	0.023346	-0.02655	0.080719	0.013123	0.03067	-0.21622	0.021362	0.061188	0.048523	-0.083923	-0.2504	-0.088654	-0.050812	-0.083618	-0.004425	-0.005035	-0.24506	0.005341	-0.001678	-0.01297
19.763	0.011597	0.18005	-0.071411	0.015869	0.073395	-0.13473	0.1001	-0.032806	-0.091095	0.006714	-0.008087	0.013428	0.020599	-0.020752	0.069885	0.010223	0.034332	-0.24826	-0.000916	0.10239	-0.004578	0.007935	-0.25345	-0.039825	-0.058136	-0.089111	0.044708	-0.012512	-0.066376	0.040894	0.002594	-0.023804
19.764	-0.00473	0.15701	-0.1001	0.022736	0.012512	-0.19073	0.12833	-0.033722	-0.070496	0.023499	-0.00412	0.018005	-0.029755	-0.000153	0.06134	0.014648	0.034943	-0.25711	-0.001984	0.12161	-0.039978	-0.043945	-0.26093	-0.099792	-0.053406	-0.045776	0.12619	-0.027466	-0.20721	-0.092926	-0.000458	-0.016174
19.765	0.00351	0.14633	-0.11856	0.023193	-0.086975	-0.27176	0.19943	-0.027771	-0.25345	0.027771	-0.005341	0.016785	0.013123	0.043335	0.04837	0.027618	0.034332	-0.26276	-0.048676	0.14206	0.068512	-0.028687	-0.17563	-0.12802	-0.053558	-0.014191	0.070648	-0.018005	-0.89432	-0.57831	-0.003052	-0.016785
19.766	0.007324	0.11414	-0.094299	0.023956	-0.17746	-0.12314	0.15152	-0.015564	-0.37567	0.041046	-0.006256	0.020752	0.072174	0.062103	0.030212	0.031586	0.027008	-0.24399	-0.013123	0.091095	0.08606	-0.010376	-0.24124	-0.024872	-0.034027	0.031433	-0.056	-0.005798	-0.26993	-0.92865	-0.003662	-0.010376
19.767	0.00885	0.085144	0.021057	0.024719	-0.1767	-0.23666	-0.005493	-0.015259	-0.23483	0.03006	-0.019226	0.019684	0.056305	0.04425	0.010071	0.037231	0.038452	-0.20309	0.023346	0.008545	0.09201	0.019073	-0.23377	0.031128	-0.019226	0.039825	-0.062561	-0.005188	-0.1622	-0.63553	-0.000153	-0.007477
19.768	-0.007019	0.10452	0.023804	0.020905	-0.11047	-0.36652	-0.058136	-0.010834	-0.082855	0.037384	-0.050964	0.027466	0.007782	0.050354	0.02655	0.046997	0.018005	-0.18127	0.0383	-0.021057	0.15106	0.073242	-0.26352	0.005493	-0.018158	-0.03952	-0.060272	-0.021515	-0.42038	0.24887	-0.005035	-0.004578
19.769	-0.004425	0.1033	0.081177	0.0177	0.033417	-0.25269	-0.064545	-0.000305	0.23697	0.04776	-0.042572	0.019379	-0.015411	0.06073	0.013123	0.053253	-0.030975	-0.26535	0.021667	-0.061798	0.18051	0.10544	-0.26047	0.035858	-0.007172	-0.018005	-0.080414	-0.020752	-0.024719	0.69122	-0.003052	-0.006561
